ffmpeg version 3.4.8-0ubuntu0.2 Copyright (c) 2000-2020 the FFmpeg developers
  built with gcc 7 (Ubuntu 7.5.0-3ubuntu1~18.04)
  configuration: --prefix=/usr --extra-version=0ubuntu0.2 --toolchain=hardened --libdir=/usr/lib/x86_64-linux-gnu --incdir=/usr/include/x86_64-linux-gnu --enable-gpl --disable-stripping --enable-avresample --enable-avisynth --enable-gnutls --enable-ladspa --enable-libass --enable-libbluray --enable-libbs2b --enable-libcaca --enable-libcdio --enable-libflite --enable-libfontconfig --enable-libfreetype --enable-libfribidi --enable-libgme --enable-libgsm --enable-libmp3lame --enable-libmysofa --enable-libopenjpeg --enable-libopenmpt --enable-libopus --enable-libpulse --enable-librubberband --enable-librsvg --enable-libshine --enable-libsnappy --enable-libsoxr --enable-libspeex --enable-libssh --enable-libtheora --enable-libtwolame --enable-libvorbis --enable-libvpx --enable-libwavpack --enable-libwebp --enable-libx265 --enable-libxml2 --enable-libxvid --enable-libzmq --enable-libzvbi --enable-omx --enable-openal --enable-opengl --enable-sdl2 --enable-libdc1394 --enable-libdrm --enable-libiec61883 --enable-chromaprint --enable-frei0r --enable-libopencv --enable-libx264 --enable-shared
  libavutil      55. 78.100 / 55. 78.100
  libavcodec     57.107.100 / 57.107.100
  libavformat    57. 83.100 / 57. 83.100
  libavdevice    57. 10.100 / 57. 10.100
  libavfilter     6.107.100 /  6.107.100
  libavresample   3.  7.  0 /  3.  7.  0
  libswscale      4.  8.100 /  4.  8.100
  libswresample   2.  9.100 /  2.  9.100
  libpostproc    54.  7.100 / 54.  7.100
[rawvideo @ 0x558fced1ca20] Estimating duration from bitrate, this may be inaccurate
Input #0, rawvideo, from '../../SVC-Encoder-20220109T061506Z-001/SVC-Encoder/Dataset/RollerCoaster/6f_2x2/tile_yuv/f1_t3_480x480.yuv':
  Duration: 00:00:10.00, start: 0.000000, bitrate: 82944 kb/s
    Stream #0:0: Video: rawvideo (I420 / 0x30323449), yuv420p, 480x480, 82944 kb/s, 30 tbr, 30 tbn, 30 tbc
Stream mapping:
  Stream #0:0 -> #0:0 (rawvideo (native) -> h264 (libx264))
Press [q] to stop, [?] for help
[libx264 @ 0x558fced29c60] using cpu capabilities: MMX2 SSE2Fast LZCNT SSSE3 SSE4.2 AVX
[libx264 @ 0x558fced29c60] profile High, level 3.0
Output #0, rawvideo, to 'RollerCoaster_f1_t3_480x480_x264_QP_24.h264':
  Metadata:
    encoder         : Lavf57.83.100
    Stream #0:0: Video: h264 (libx264), yuv420p, 480x480, q=-1--1, 30 fps, 30 tbn, 30 tbc
    Metadata:
      encoder         : Lavc57.107.100 libx264
    Side data:
      cpb: bitrate max/min/avg: 0/0/0 buffer size: 0 vbv_delay: -1
frame=   92 fps=0.0 q=30.0 PSNR=Y:nan U:nan V:nan *:nan size=     193kB time=00:00:01.63 bitrate= 968.4kbits/s speed= 3.2x    frame=  146 fps=144 q=30.0 PSNR=Y:nan U:nan V:nan *:nan size=     256kB time=00:00:03.43 bitrate= 610.8kbits/s speed= 3.4x    frame=  200 fps=131 q=30.0 PSNR=Y:nan U:nan V:nan *:nan size=     512kB time=00:00:05.23 bitrate= 801.5kbits/s speed=3.44x    frame=  256 fps=126 q=30.0 PSNR=Y:nan U:nan V:nan *:nan size=     512kB time=00:00:07.10 bitrate= 590.7kbits/s speed= 3.5x    frame=  300 fps=110 q=30.0 LPSNR=Y:inf U:inf V:inf *:inf size=    1019kB time=00:00:09.93 bitrate= 840.3kbits/s speed=3.63x    
video:1019kB audio:0kB subtitle:0kB other streams:0kB global headers:0kB muxing overhead: 0.000000%
[libx264 @ 0x558fced29c60] frame I:2     Avg QP:22.10  size: 36089  PSNR Mean Y:42.74 U:48.02 V:48.71 Avg:43.94 Global:43.85
[libx264 @ 0x558fced29c60] frame P:76    Avg QP:23.75  size:  9119  PSNR Mean Y:40.92 U:47.58 V:47.99 Avg:42.25 Global:42.19
[libx264 @ 0x558fced29c60] frame B:222   Avg QP:29.43  size:  1253  PSNR Mean Y:39.52 U:47.31 V:47.73 Avg:40.95 Global:40.93
[libx264 @ 0x558fced29c60] consecutive B-frames:  1.3%  0.0%  0.0% 98.7%
[libx264 @ 0x558fced29c60] mb I  I16..4:  4.1% 62.5% 33.4%
[libx264 @ 0x558fced29c60] mb P  I16..4:  0.2%  1.3%  0.5%  P16..4: 35.4% 30.0% 19.3%  0.0%  0.0%    skip:13.2%
[libx264 @ 0x558fced29c60] mb B  I16..4:  0.0%  0.0%  0.0%  B16..8: 37.9% 10.5%  1.6%  direct: 1.2%  skip:48.7%  L0:37.9% L1:46.1% BI:16.1%
[libx264 @ 0x558fced29c60] 8x8 transform intra:62.9% inter:61.8%
[libx264 @ 0x558fced29c60] coded y,uvDC,uvAC intra: 86.5% 78.9% 37.6% inter: 16.3% 7.9% 0.1%
[libx264 @ 0x558fced29c60] i16 v,h,dc,p: 16% 35% 18% 31%
[libx264 @ 0x558fced29c60] i8 v,h,dc,ddl,ddr,vr,hd,vl,hu: 10% 17% 10%  5% 17% 10% 11%  9% 10%
[libx264 @ 0x558fced29c60] i4 v,h,dc,ddl,ddr,vr,hd,vl,hu: 14% 20% 10%  5% 16% 11% 11%  7%  7%
[libx264 @ 0x558fced29c60] i8c dc,h,v,p: 43% 19% 19% 19%
[libx264 @ 0x558fced29c60] Weighted P-Frames: Y:0.0% UV:0.0%
[libx264 @ 0x558fced29c60] ref P L0: 58.4% 17.7% 19.1%  4.8%
[libx264 @ 0x558fced29c60] ref B L0: 86.7% 11.3%  2.0%
[libx264 @ 0x558fced29c60] ref B L1: 90.4%  9.6%
[libx264 @ 0x558fced29c60] PSNR Mean Y:39.898 U:47.380 V:47.801 Avg:41.301 Global:41.234 kb/s:834.75
